HIERARCHY
ROOT Hips
{
	OFFSET 0.000000 121.760803 0.000000
	CHANNELS 6 Xposition Yposition Zposition Xrotation Yrotation Zrotation 
	JOINT Spine
	{
		OFFSET 0.072000 7.257294 -0.789700
		CHANNELS 3 Xrotation Yrotation Zrotation
		JOINT Spine1
		{
			OFFSET 0.000000 12.508769 -0.658067
			CHANNELS 3 Xrotation Yrotation Zrotation
			JOINT Spine1_split
			{
				OFFSET 0.000000 12.508769 -0.658067
				CHANNELS 3 Xrotation Yrotation Zrotation
				JOINT Spine2
				{
					OFFSET 0.000000 12.508769 -0.658067
					CHANNELS 3 Xrotation Yrotation Zrotation
					JOINT Neck
					{
						OFFSET 0.000000 14.033295 7.520400
						CHANNELS 3 Xrotation Yrotation Zrotation
						JOINT Head
						{
							OFFSET 0.000000 8.198502 5.703100
							CHANNELS 3 Xrotation Yrotation Zrotation
							JOINT HeadTop_End
							{
								OFFSET 0.000000 17.760803 13.332701
								CHANNELS 3 Xrotation Yrotation Zrotation
								End Site
								{
									OFFSET 0.000000 0.000000 0.000000
								}
							}
						}
					}
					JOINT LeftShoulder
					{
						OFFSET 6.292450 5.785301 -0.669000
						CHANNELS 3 Xrotation Yrotation Zrotation
						JOINT LeftShoulder_split
						{
							OFFSET 6.292450 5.785301 -0.669000
							CHANNELS 3 Xrotation Yrotation Zrotation
							JOINT LeftArm
							{
								OFFSET 13.907140 -6.093903 1.965100
								CHANNELS 3 Xrotation Yrotation Zrotation
								JOINT LeftForeArm
								{
									OFFSET 34.140198 0.000000 0.000000
									CHANNELS 3 Xrotation Yrotation Zrotation
									JOINT LeftHand
									{
										OFFSET 40.960209 0.000000 0.000000
										CHANNELS 3 Xrotation Yrotation Zrotation
										JOINT LeftHandThumb1
										{
											OFFSET 10.006996 -7.170425 9.573125
											CHANNELS 3 Xrotation Yrotation Zrotation
											JOINT LeftHandThumb2
											{
												OFFSET 1.835007 -1.059448 1.059443
												CHANNELS 3 Xrotation Yrotation Zrotation
												JOINT LeftHandThumb3
												{
													OFFSET 2.112267 -1.219513 1.219518
													CHANNELS 3 Xrotation Yrotation Zrotation
													JOINT LeftHandThumb4
													{
														OFFSET 4.843811 -2.796570 2.796576
														CHANNELS 3 Xrotation Yrotation Zrotation
														End Site
														{
															OFFSET 0.000000 0.000000 0.000000
														}
													}
												}
											}
										}
										JOINT LeftHandIndex1
										{
											OFFSET 18.389847 -0.922348 4.596882
											CHANNELS 3 Xrotation Yrotation Zrotation
											JOINT LeftHandIndex2
											{
												OFFSET 4.711273 0.000000 0.000000
												CHANNELS 3 Xrotation Yrotation Zrotation
												JOINT LeftHandIndex3
												{
													OFFSET 2.886131 0.000000 0.000000
													CHANNELS 3 Xrotation Yrotation Zrotation
													JOINT LeftHandIndex4
													{
														OFFSET 6.145912 0.000000 0.000000
														CHANNELS 3 Xrotation Yrotation Zrotation
														End Site
														{
															OFFSET 0.000000 0.000000 0.000000
														}
													}
												}
											}
										}
										JOINT LeftHandMiddle1
										{
											OFFSET 18.013008 0.000000 0.000000
											CHANNELS 3 Xrotation Yrotation Zrotation
											JOINT LeftHandMiddle2
											{
												OFFSET 4.946693 0.000000 0.000000
												CHANNELS 3 Xrotation Yrotation Zrotation
												JOINT LeftHandMiddle3
												{
													OFFSET 3.342232 0.000000 0.000000
													CHANNELS 3 Xrotation Yrotation Zrotation
													JOINT LeftHandMiddle4
													{
														OFFSET 4.461754 0.000000 0.000000
														CHANNELS 3 Xrotation Yrotation Zrotation
														End Site
														{
															OFFSET 0.000000 0.000000 0.000000
														}
													}
												}
											}
										}
										JOINT LeftHandRing1
										{
											OFFSET 15.849892 -0.102921 -4.126150
											CHANNELS 3 Xrotation Yrotation Zrotation
											JOINT LeftHandRing2
											{
												OFFSET 3.527054 0.000000 0.000000
												CHANNELS 3 Xrotation Yrotation Zrotation
												JOINT LeftHandRing3
												{
													OFFSET 2.961098 0.000000 0.000000
													CHANNELS 3 Xrotation Yrotation Zrotation
													JOINT LeftHandRing4
													{
														OFFSET 4.927200 0.000000 0.000000
														CHANNELS 3 Xrotation Yrotation Zrotation
														End Site
														{
															OFFSET 0.000000 0.000000 0.000000
														}
													}
												}
											}
										}
										JOINT LeftHandPinky1
										{
											OFFSET 12.791824 -0.832031 -6.799156
											CHANNELS 3 Xrotation Yrotation Zrotation
											JOINT LeftHandPinky2
											{
												OFFSET 3.327133 0.000000 0.000000
												CHANNELS 3 Xrotation Yrotation Zrotation
												JOINT LeftHandPinky3
												{
													OFFSET 3.014900 0.000000 0.000000
													CHANNELS 3 Xrotation Yrotation Zrotation
													JOINT LeftHandPinky4
													{
														OFFSET 5.847786 0.000000 0.000000
														CHANNELS 3 Xrotation Yrotation Zrotation
														End Site
														{
															OFFSET 0.000000 0.000000 0.000000
														}
													}
												}
											}
										}
									}
								}
							}
						}
					}
					JOINT RightShoulder
					{
						OFFSET -6.292450 5.785301 -0.669000
						CHANNELS 3 Xrotation Yrotation Zrotation
						JOINT RightShoulder_split
						{
							OFFSET -6.292450 5.785301 -0.669000
							CHANNELS 3 Xrotation Yrotation Zrotation
							JOINT RightArm
							{
								OFFSET -13.907140 -6.093903 1.965100
								CHANNELS 3 Xrotation Yrotation Zrotation
								JOINT RightForeArm
								{
									OFFSET -34.140198 0.000000 0.000000
									CHANNELS 3 Xrotation Yrotation Zrotation
									JOINT RightHand
									{
										OFFSET -40.960209 0.000000 0.000000
										CHANNELS 3 Xrotation Yrotation Zrotation
										JOINT RightHandThumb1
										{
											OFFSET -10.007050 -7.170456 9.573117
											CHANNELS 3 Xrotation Yrotation Zrotation
											JOINT RightHandThumb2
											{
												OFFSET -1.835007 -1.059448 1.059443
												CHANNELS 3 Xrotation Yrotation Zrotation
												JOINT RightHandThumb3
												{
													OFFSET -2.112267 -1.219513 1.219518
													CHANNELS 3 Xrotation Yrotation Zrotation
													JOINT RightHandThumb4
													{
														OFFSET -4.843834 -2.796585 2.796590
														CHANNELS 3 Xrotation Yrotation Zrotation
														End Site
														{
															OFFSET 0.000000 0.000000 0.000000
														}
													}
												}
											}
										}
										JOINT RightHandIndex1
										{
											OFFSET -18.389870 -0.922424 4.596786
											CHANNELS 3 Xrotation Yrotation Zrotation
											JOINT RightHandIndex2
											{
												OFFSET -4.711273 0.000000 0.000000
												CHANNELS 3 Xrotation Yrotation Zrotation
												JOINT RightHandIndex3
												{
													OFFSET -2.886131 0.000000 0.000000
													CHANNELS 3 Xrotation Yrotation Zrotation
													JOINT RightHandIndex4
													{
														OFFSET -6.145920 0.000000 0.000000
														CHANNELS 3 Xrotation Yrotation Zrotation
														End Site
														{
															OFFSET 0.000000 0.000000 0.000000
														}
													}
												}
											}
										}
										JOINT RightHandMiddle1
										{
											OFFSET -18.013008 0.000000 0.000000
											CHANNELS 3 Xrotation Yrotation Zrotation
											JOINT RightHandMiddle2
											{
												OFFSET -4.946693 0.000000 0.000000
												CHANNELS 3 Xrotation Yrotation Zrotation
												JOINT RightHandMiddle3
												{
													OFFSET -3.342232 0.000000 0.000000
													CHANNELS 3 Xrotation Yrotation Zrotation
													JOINT RightHandMiddle4
													{
														OFFSET -4.461754 0.000000 0.000000
														CHANNELS 3 Xrotation Yrotation Zrotation
														End Site
														{
															OFFSET 0.000000 0.000000 0.000000
														}
													}
												}
											}
										}
										JOINT RightHandRing1
										{
											OFFSET -15.849876 -0.102936 -4.126237
											CHANNELS 3 Xrotation Yrotation Zrotation
											JOINT RightHandRing2
											{
												OFFSET -3.527054 0.000000 0.000000
												CHANNELS 3 Xrotation Yrotation Zrotation
												JOINT RightHandRing3
												{
													OFFSET -2.961098 0.000000 0.000000
													CHANNELS 3 Xrotation Yrotation Zrotation
													JOINT RightHandRing4
													{
														OFFSET -4.927200 0.000000 0.000000
														CHANNELS 3 Xrotation Yrotation Zrotation
														End Site
														{
															OFFSET 0.000000 0.000000 0.000000
														}
													}
												}
											}
										}
										JOINT RightHandPinky1
										{
											OFFSET -12.791786 -0.832077 -6.799222
											CHANNELS 3 Xrotation Yrotation Zrotation
											JOINT RightHandPinky2
											{
												OFFSET -3.327133 0.000000 0.000000
												CHANNELS 3 Xrotation Yrotation Zrotation
												JOINT RightHandPinky3
												{
													OFFSET -3.014900 0.000000 0.000000
													CHANNELS 3 Xrotation Yrotation Zrotation
													JOINT RightHandPinky4
													{
														OFFSET -5.847786 0.000000 0.000000
														CHANNELS 3 Xrotation Yrotation Zrotation
														End Site
														{
															OFFSET 0.000000 0.000000 0.000000
														}
													}
												}
											}
										}
									}
								}
							}
						}
					}
				}
			}
		}
	}
	JOINT LeftUpLeg
	{
		OFFSET 13.026900 -6.336304 -1.092800
		CHANNELS 3 Xrotation Yrotation Zrotation
		JOINT LeftLeg
		{
			OFFSET 0.524474 -46.096886 9.782700
			CHANNELS 3 Xrotation Yrotation Zrotation
			JOINT LeftFoot
			{
				OFFSET -0.524474 -53.427422 -12.948200
				CHANNELS 3 Xrotation Yrotation Zrotation
				JOINT LeftToeBase
				{
					OFFSET 0.192200 -14.009700 16.364100
					CHANNELS 3 Xrotation Yrotation Zrotation
					JOINT LeftToe_End
					{
						OFFSET -1.784700 -0.561700 9.474800
						CHANNELS 3 Xrotation Yrotation Zrotation
						End Site
						{
							OFFSET 0.000000 0.000000 0.000000
						}
					}
				}
			}
		}
	}
	JOINT RightUpLeg
	{
		OFFSET -12.883000 -6.336304 -1.092800
		CHANNELS 3 Xrotation Yrotation Zrotation
		JOINT RightLeg
		{
			OFFSET -0.524587 -46.096825 9.782800
			CHANNELS 3 Xrotation Yrotation Zrotation
			JOINT RightFoot
			{
				OFFSET 0.524587 -53.427383 -12.948300
				CHANNELS 3 Xrotation Yrotation Zrotation
				JOINT RightToeBase
				{
					OFFSET -0.192200 -14.009700 16.364100
					CHANNELS 3 Xrotation Yrotation Zrotation
					JOINT RightToe_End
					{
						OFFSET 1.784700 -0.561700 9.474800
						CHANNELS 3 Xrotation Yrotation Zrotation
						End Site
						{
							OFFSET 0.000000 0.000000 0.000000
						}
					}
				}
			}
		}
	}
}
MOTION
Frames: 4
Frame Time: 0.016667
-9.215918 112.326714 577.945496 178.357850 19.106063 -173.759097 -7.982230 9.650520 -4.690574 2.885765 0.867784 -2.840126 0.000000 0.000000 0.000000 2.918912 0.925579 -2.789146 -2.267352 -1.126767 -1.980808 5.163783 9.476490 4.286313 0.000000 -0.000000 0.000000 2.179065 -9.179413 -8.047981 0.000000 0.000000 0.000000 14.406950 29.963972 -77.628611 0.000008 -34.684459 0.000002 14.422658 3.046595 -0.816647 -6.684704 7.621261 19.674621 12.443677 25.448709 -7.963744 5.136231 7.868237 -3.074647 0.000001 -0.000000 0.000000 -0.599928 -1.191960 -15.838710 0.763115 3.155583 -27.183151 0.349275 2.169168 -18.292223 0.000000 -0.000000 -0.000003 -0.513523 -1.737478 -12.002729 0.474079 2.515165 -21.345296 0.506566 2.596689 -22.073850 -0.000000 -0.000000 -0.000001 0.001055 0.779663 -12.836413 0.906746 3.420413 -29.687130 0.010821 0.386697 -3.206012 -0.000000 0.000001 0.000003 2.100220 10.721555 -11.319392 0.694479 -1.057923 -26.220978 0.652030 2.929542 -25.090708 0.000000 -0.000000 0.000003 1.176339 8.510090 2.447320 0.000000 0.000000 0.000000 54.046631 33.855875 65.975693 -0.000044 63.444049 0.000045 52.855532 43.637221 -78.072566 2.028300 4.773708 9.571601 4.642461 -8.639181 -0.222140 -7.858494 19.054604 -1.516466 -0.000000 -0.000003 -0.000001 8.333972 12.771165 -38.552648 0.273803 -1.935660 16.100460 0.241774 -1.821139 15.123584 -0.000000 -0.000001 -0.000001 3.496420 8.099761 -28.749356 0.565353 -2.751008 23.221795 2.245363 -0.071471 0.868665 0.000003 -0.000000 0.000000 1.427759 5.041215 -20.610596 0.144906 -1.414976 11.694197 -0.548241 -0.393223 2.985504 -0.000002 -0.000000 -0.000000 -3.351272 -9.486527 -18.455438 0.124457 -1.312297 10.834522 0.090378 -1.119719 9.229104 -0.000000 -0.000002 0.000001 -8.910269 4.715814 -15.509596 24.829455 2.473676 2.288815 -17.256191 0.029596 -1.004092 0.155512 -0.000577 0.191144 0.000000 0.000001 0.000001 -7.278606 -10.162920 -16.463611 49.573516 -10.760208 -1.773288 22.866372 -5.611219 27.050691 -12.210596 0.000038 -0.000021 -0.000001 -0.000002 0.000001 
-9.344347 111.534370 577.460083 178.463322 18.653966 -173.193558 -7.745876 9.396660 -4.649767 2.875274 0.818130 -2.931603 0.000000 0.000000 0.000000 2.908802 0.873099 -2.883819 -2.130121 -0.781070 -2.167741 5.293200 11.076065 3.964216 0.000000 0.000000 0.000000 2.350522 -9.842293 -8.206665 0.000000 0.000000 0.000000 12.252319 28.921299 -76.587171 -0.000007 -33.323947 -0.000006 15.503478 3.149334 -1.500089 -6.700399 7.648509 20.154620 12.316248 25.187817 -7.880622 5.028905 7.619582 -3.015377 0.000002 -0.000000 -0.000000 -0.634958 -1.349614 -15.696745 0.763053 3.155494 -27.182230 0.348871 2.167933 -18.281519 0.000001 -0.000001 -0.000002 -0.502566 -1.793118 -11.613249 0.485403 2.543914 -21.601790 0.504154 2.590733 -22.020482 0.000000 -0.000001 -0.000002 -0.009622 0.728890 -12.781711 0.923276 3.449206 -29.963128 0.009971 0.371092 -3.076509 -0.000001 -0.000000 -0.000003 1.964091 10.449547 -10.849562 0.730368 -0.986119 -26.885469 0.652541 2.930633 -25.100675 -0.000002 -0.000000 -0.000000 1.147072 8.186082 2.395673 0.000000 0.000000 0.000000 53.514139 32.226089 67.039960 0.000064 64.113599 -0.000054 51.483873 43.898408 -75.395781 1.630041 4.544516 9.876804 4.619466 -8.628185 -0.234491 -7.863841 19.056163 -1.516035 -0.000001 0.000001 0.000001 8.024286 12.463472 -38.292773 0.272158 -1.929963 16.051756 0.241649 -1.820673 15.119667 0.000005 -0.000000 -0.000000 3.286607 7.766320 -28.519714 0.563634 -2.746986 23.185634 2.029248 -0.074420 0.864582 0.000003 0.000000 -0.000001 1.292491 4.713900 -20.382828 0.143437 -1.407897 11.634672 -0.829173 -0.408304 2.986815 0.000001 -0.000001 -0.000000 -3.406043 -9.828173 -18.246085 0.124793 -1.314081 10.849479 0.090113 -1.118073 9.215510 0.000000 0.000001 -0.000000 -9.214626 5.139811 -16.177510 26.421207 1.922500 2.147958 -18.255844 -0.044562 -1.116176 0.153619 -0.000580 0.189395 0.000000 0.000001 0.000000 -10.929217 -8.711213 -18.308138 55.011389 -10.980757 -2.089617 23.956929 -3.924383 27.057762 -10.181151 0.000012 -0.000013 -0.000002 0.000001 0.000001 
-9.413755 110.647545 577.052856 178.580897 18.361191 -172.564374 -7.291562 9.069157 -4.770179 2.875484 0.762741 -2.993523 0.000000 0.000000 0.000000 2.908381 0.813676 -2.949339 -2.055260 -0.454481 -2.308379 5.231539 12.641306 3.684730 0.000000 0.000000 0.000000 2.546454 -10.572189 -8.378381 0.000000 0.000000 0.000000 9.922150 27.756103 -75.391997 -0.000009 -32.041910 -0.000020 16.831400 3.251084 -2.443221 -6.700548 7.737807 20.690866 12.203168 24.954412 -7.806914 4.916796 7.358033 -2.953361 -0.000001 -0.000000 -0.000000 -0.673815 -1.516359 -15.590028 0.762996 3.155367 -27.181154 0.348359 2.166397 -18.268036 0.000001 0.000000 0.000000 -0.478437 -1.803005 -11.152377 0.496709 2.572273 -21.855231 0.501615 2.584456 -21.964328 -0.000001 0.000000 0.000001 -0.003892 0.744798 -12.628213 0.940811 3.479387 -30.253234 0.009080 0.354237 -2.936646 -0.000000 -0.000001 -0.000000 1.821259 10.186831 -10.297968 0.772723 -0.903955 -27.650733 0.653788 2.933287 -25.125028 -0.000001 0.000001 0.000004 1.128168 7.962234 2.448089 0.000000 0.000000 0.000000 52.967185 30.554957 67.976884 -0.000022 64.710824 0.000036 50.178565 44.006024 -72.730177 1.538539 4.517426 9.972493 4.594821 -8.615001 -0.248084 -7.869311 19.058019 -1.515693 0.000002 -0.000002 -0.000003 7.968354 12.398181 -38.277763 0.271534 -1.927776 16.033130 0.241523 -1.820229 15.115811 -0.000003 -0.000000 0.000000 3.251005 7.703726 -28.510808 0.563240 -2.746088 23.177690 1.961799 -0.075323 0.863224 0.000001 0.000001 0.000000 1.270424 4.657463 -20.365543 0.142516 -1.403325 11.596584 -0.912822 -0.413121 2.989270 -0.000001 -0.000000 0.000000 -3.420581 -9.891943 -18.227572 0.124330 -1.311610 10.828822 0.089857 -1.116438 9.201712 0.000000 0.000001 -0.000000 -9.633643 5.501579 -16.937134 28.151046 1.575673 2.076315 -19.293521 -0.080141 -1.213592 0.189493 -0.000862 0.233844 0.000000 -0.000001 0.000001 -14.950174 -6.606070 -19.810918 60.914291 -11.096735 -2.442154 25.679595 -2.586659 26.540249 -8.261854 0.000009 -0.000003 0.000000 0.000000 0.000001 
-9.404177 109.672867 576.687805 178.777838 18.185770 -171.915725 -6.567255 8.632218 -5.058627 2.893130 0.698840 -3.014761 0.000000 0.000000 0.000000 2.924214 0.744274 -2.974639 -2.071822 -0.141755 -2.407374 4.963951 14.191077 3.450175 0.000000 0.000000 -0.000000 2.756977 -11.327257 -8.553154 0.000000 0.000000 0.000000 7.462146 26.390229 -74.021711 -0.000000 -30.901569 0.000003 18.404090 3.328758 -3.716051 -6.679925 7.905304 21.241958 12.115540 24.772317 -7.749831 4.807594 7.101539 -2.892901 -0.000001 -0.000001 0.000000 -0.715155 -1.681679 -15.537898 0.762927 3.155237 -27.179862 0.347752 2.164544 -18.251850 0.000000 -0.000002 -0.000001 -0.441819 -1.753590 -10.653321 0.508279 2.600898 -22.111602 0.498875 2.577668 -21.903460 0.000004 0.000000 -0.000001 0.018856 0.833785 -12.381407 0.958583 3.509636 -30.544842 0.008206 0.336793 -2.791981 -0.000001 -0.000000 -0.000001 1.680017 9.950120 -9.693207 0.819467 -0.816288 -28.473228 0.655725 2.937415 -25.162854 -0.000000 -0.000001 -0.000000 1.119225 7.836399 2.584077 0.000000 0.000000 0.000000 52.387332 28.918871 68.720657 0.000033 65.210405 -0.000008 49.212797 43.993460 -70.307543 1.612552 4.590513 9.914297 4.591455 -8.611597 -0.250450 -7.869708 19.058472 -1.515834 0.000002 -0.000001 0.000001 8.043915 12.469087 -38.358066 0.271723 -1.928491 16.039210 0.241529 -1.820191 15.115478 0.000003 0.000000 -0.000000 3.304415 7.786609 -28.584693 0.563703 -2.747162 23.187259 1.990269 -0.074948 0.863784 0.000000 0.000000 0.000000 1.306164 4.743801 -20.435248 0.142633 -1.403914 11.601406 -0.870392 -0.410946 2.989988 -0.000001 0.000000 -0.000000 -3.408490 -9.802918 -18.290287 0.124131 -1.310585 10.820401 0.089817 -1.116238 9.200078 -0.000001 -0.000001 0.000000 -10.029173 5.837456 -17.747229 29.958934 1.407681 2.032016 -20.378049 -0.105019 -1.146902 0.240420 -0.001387 0.296538 0.000000 -0.000001 0.000001 -19.154424 -3.864102 -20.801520 67.122639 -11.126257 -2.772531 28.110171 -1.349171 25.318917 -6.846194 0.000000 0.000007 -0.000000 -0.000001 -0.000001 
